<mxfile host="app.diagrams.net" modified="2023-09-18T11:03:05.575Z" agent="Mozilla/5.0 (Windows NT 10.0; Win64; x64) AppleWebKit/537.36 (KHTML, like Gecko) Chrome/116.0.0.0 Safari/537.36" etag="HzdE4rQIVZXTRyrpq1kx" version="21.7.5" type="device">
  <diagram id="C5RBs43oDa-KdzZeNtuy" name="Page-1">
    <mxGraphModel dx="2049" dy="1131" grid="0" gridSize="10" guides="1" tooltips="1" connect="1" arrows="1" fold="1" page="1" pageScale="1" pageWidth="827" pageHeight="1169" math="0" shadow="0">
      <root>
        <mxCell id="WIyWlLk6GJQsqaUBKTNV-0" />
        <mxCell id="WIyWlLk6GJQsqaUBKTNV-1" parent="WIyWlLk6GJQsqaUBKTNV-0" />
        <mxCell id="WIyWlLk6GJQsqaUBKTNV-3" value="&lt;font style=&quot;font-size: 21px;&quot;&gt;func_for_zad3&lt;/font&gt;" style="rounded=1;whiteSpace=wrap;html=1;fontSize=14;glass=0;strokeWidth=1;shadow=0;" parent="WIyWlLk6GJQsqaUBKTNV-1" vertex="1">
          <mxGeometry x="291" y="62" width="142" height="40" as="geometry" />
        </mxCell>
        <mxCell id="6moriQLyFXrOPChxs1bC-0" value="Вход. пар-ры: x, y, a&lt;br style=&quot;font-size: 21px;&quot;&gt;Возвр. знач.: func_for_zad3" style="text;html=1;strokeColor=none;fillColor=none;align=left;verticalAlign=middle;whiteSpace=wrap;rounded=0;fontSize=21;" parent="WIyWlLk6GJQsqaUBKTNV-1" vertex="1">
          <mxGeometry x="492" y="67" width="203" height="30" as="geometry" />
        </mxCell>
        <mxCell id="6moriQLyFXrOPChxs1bC-2" value="" style="endArrow=none;html=1;rounded=0;entryX=1;entryY=0.5;entryDx=0;entryDy=0;exitX=0;exitY=0.5;exitDx=0;exitDy=0;" parent="WIyWlLk6GJQsqaUBKTNV-1" source="6moriQLyFXrOPChxs1bC-0" target="WIyWlLk6GJQsqaUBKTNV-3" edge="1">
          <mxGeometry width="50" height="50" relative="1" as="geometry">
            <mxPoint x="402" y="152" as="sourcePoint" />
            <mxPoint x="452" y="102" as="targetPoint" />
          </mxGeometry>
        </mxCell>
        <mxCell id="6moriQLyFXrOPChxs1bC-5" value="" style="endArrow=none;html=1;rounded=0;" parent="WIyWlLk6GJQsqaUBKTNV-1" edge="1">
          <mxGeometry width="50" height="50" relative="1" as="geometry">
            <mxPoint x="492" y="29" as="sourcePoint" />
            <mxPoint x="492" y="82" as="targetPoint" />
          </mxGeometry>
        </mxCell>
        <mxCell id="6moriQLyFXrOPChxs1bC-7" value="" style="endArrow=none;html=1;rounded=0;" parent="WIyWlLk6GJQsqaUBKTNV-1" edge="1">
          <mxGeometry width="50" height="50" relative="1" as="geometry">
            <mxPoint x="492" y="136" as="sourcePoint" />
            <mxPoint x="492" y="82" as="targetPoint" />
          </mxGeometry>
        </mxCell>
        <mxCell id="YWLN9xPVWwnnbP-Pcery-0" value="" style="endArrow=none;html=1;rounded=0;exitX=0.5;exitY=1;exitDx=0;exitDy=0;entryX=0.5;entryY=0;entryDx=0;entryDy=0;" parent="WIyWlLk6GJQsqaUBKTNV-1" source="WIyWlLk6GJQsqaUBKTNV-3" edge="1">
          <mxGeometry width="50" height="50" relative="1" as="geometry">
            <mxPoint x="530" y="377" as="sourcePoint" />
            <mxPoint x="362" y="152" as="targetPoint" />
          </mxGeometry>
        </mxCell>
        <mxCell id="lrFM34d_Fa-Jtx6sUcbM-0" value="&lt;font style=&quot;font-size: 21px;&quot;&gt;x &amp;lt; 0&lt;/font&gt;" style="rhombus;whiteSpace=wrap;html=1;" vertex="1" parent="WIyWlLk6GJQsqaUBKTNV-1">
          <mxGeometry x="293" y="143" width="138" height="80" as="geometry" />
        </mxCell>
        <mxCell id="lrFM34d_Fa-Jtx6sUcbM-1" value="&lt;font style=&quot;font-size: 19px;&quot;&gt;m = 0&lt;/font&gt;" style="rounded=0;whiteSpace=wrap;html=1;" vertex="1" parent="WIyWlLk6GJQsqaUBKTNV-1">
          <mxGeometry x="435" y="246" width="120" height="60" as="geometry" />
        </mxCell>
        <mxCell id="lrFM34d_Fa-Jtx6sUcbM-2" value="" style="endArrow=none;html=1;rounded=0;exitX=1;exitY=0.5;exitDx=0;exitDy=0;" edge="1" parent="WIyWlLk6GJQsqaUBKTNV-1" source="lrFM34d_Fa-Jtx6sUcbM-0">
          <mxGeometry width="50" height="50" relative="1" as="geometry">
            <mxPoint x="530" y="371" as="sourcePoint" />
            <mxPoint x="494" y="183" as="targetPoint" />
          </mxGeometry>
        </mxCell>
        <mxCell id="lrFM34d_Fa-Jtx6sUcbM-3" value="" style="endArrow=none;html=1;rounded=0;exitX=0.5;exitY=0;exitDx=0;exitDy=0;" edge="1" parent="WIyWlLk6GJQsqaUBKTNV-1" source="lrFM34d_Fa-Jtx6sUcbM-1">
          <mxGeometry width="50" height="50" relative="1" as="geometry">
            <mxPoint x="530" y="371" as="sourcePoint" />
            <mxPoint x="494" y="183" as="targetPoint" />
          </mxGeometry>
        </mxCell>
        <mxCell id="lrFM34d_Fa-Jtx6sUcbM-4" value="Да" style="text;html=1;strokeColor=none;fillColor=none;align=center;verticalAlign=middle;whiteSpace=wrap;rounded=0;fontSize=21;" vertex="1" parent="WIyWlLk6GJQsqaUBKTNV-1">
          <mxGeometry x="419.5" y="154" width="60" height="30" as="geometry" />
        </mxCell>
        <mxCell id="lrFM34d_Fa-Jtx6sUcbM-6" value="&lt;font style=&quot;font-size: 19px;&quot;&gt;x&amp;nbsp;≥ 0 и x &amp;lt; 7&lt;/font&gt;" style="rhombus;whiteSpace=wrap;html=1;" vertex="1" parent="WIyWlLk6GJQsqaUBKTNV-1">
          <mxGeometry x="179" y="246" width="138" height="80" as="geometry" />
        </mxCell>
        <mxCell id="lrFM34d_Fa-Jtx6sUcbM-7" value="" style="endArrow=none;html=1;rounded=0;entryX=0;entryY=0.5;entryDx=0;entryDy=0;" edge="1" parent="WIyWlLk6GJQsqaUBKTNV-1" target="lrFM34d_Fa-Jtx6sUcbM-0">
          <mxGeometry width="50" height="50" relative="1" as="geometry">
            <mxPoint x="247" y="183" as="sourcePoint" />
            <mxPoint x="412" y="342" as="targetPoint" />
          </mxGeometry>
        </mxCell>
        <mxCell id="lrFM34d_Fa-Jtx6sUcbM-8" value="" style="endArrow=none;html=1;rounded=0;exitX=0.5;exitY=0;exitDx=0;exitDy=0;" edge="1" parent="WIyWlLk6GJQsqaUBKTNV-1" source="lrFM34d_Fa-Jtx6sUcbM-6">
          <mxGeometry width="50" height="50" relative="1" as="geometry">
            <mxPoint x="278" y="304" as="sourcePoint" />
            <mxPoint x="247" y="183" as="targetPoint" />
          </mxGeometry>
        </mxCell>
        <mxCell id="lrFM34d_Fa-Jtx6sUcbM-9" value="&lt;font style=&quot;font-size: 21px;&quot;&gt;a &amp;lt; x^a&lt;/font&gt;" style="rhombus;whiteSpace=wrap;html=1;" vertex="1" parent="WIyWlLk6GJQsqaUBKTNV-1">
          <mxGeometry x="426" y="331" width="138" height="80" as="geometry" />
        </mxCell>
        <mxCell id="lrFM34d_Fa-Jtx6sUcbM-10" value="" style="endArrow=none;html=1;rounded=0;entryX=0.5;entryY=1;entryDx=0;entryDy=0;exitX=0.5;exitY=0;exitDx=0;exitDy=0;" edge="1" parent="WIyWlLk6GJQsqaUBKTNV-1" source="lrFM34d_Fa-Jtx6sUcbM-9" target="lrFM34d_Fa-Jtx6sUcbM-1">
          <mxGeometry width="50" height="50" relative="1" as="geometry">
            <mxPoint x="366" y="432" as="sourcePoint" />
            <mxPoint x="416" y="382" as="targetPoint" />
          </mxGeometry>
        </mxCell>
        <mxCell id="lrFM34d_Fa-Jtx6sUcbM-11" value="m = a" style="rounded=0;whiteSpace=wrap;html=1;fontSize=21;" vertex="1" parent="WIyWlLk6GJQsqaUBKTNV-1">
          <mxGeometry x="528" y="432" width="120" height="60" as="geometry" />
        </mxCell>
        <mxCell id="lrFM34d_Fa-Jtx6sUcbM-12" value="&lt;font style=&quot;font-size: 21px;&quot;&gt;m = x^a&lt;/font&gt;" style="rounded=0;whiteSpace=wrap;html=1;" vertex="1" parent="WIyWlLk6GJQsqaUBKTNV-1">
          <mxGeometry x="342" y="432" width="120" height="60" as="geometry" />
        </mxCell>
        <mxCell id="lrFM34d_Fa-Jtx6sUcbM-13" value="" style="endArrow=none;html=1;rounded=0;entryX=0;entryY=0.5;entryDx=0;entryDy=0;" edge="1" parent="WIyWlLk6GJQsqaUBKTNV-1" target="lrFM34d_Fa-Jtx6sUcbM-9">
          <mxGeometry width="50" height="50" relative="1" as="geometry">
            <mxPoint x="402" y="371" as="sourcePoint" />
            <mxPoint x="417" y="492" as="targetPoint" />
          </mxGeometry>
        </mxCell>
        <mxCell id="lrFM34d_Fa-Jtx6sUcbM-14" value="" style="endArrow=none;html=1;rounded=0;entryX=0.5;entryY=0;entryDx=0;entryDy=0;" edge="1" parent="WIyWlLk6GJQsqaUBKTNV-1" target="lrFM34d_Fa-Jtx6sUcbM-12">
          <mxGeometry width="50" height="50" relative="1" as="geometry">
            <mxPoint x="402" y="371" as="sourcePoint" />
            <mxPoint x="417" y="492" as="targetPoint" />
          </mxGeometry>
        </mxCell>
        <mxCell id="lrFM34d_Fa-Jtx6sUcbM-15" value="" style="endArrow=none;html=1;rounded=0;entryX=0.5;entryY=0;entryDx=0;entryDy=0;" edge="1" parent="WIyWlLk6GJQsqaUBKTNV-1" target="lrFM34d_Fa-Jtx6sUcbM-11">
          <mxGeometry width="50" height="50" relative="1" as="geometry">
            <mxPoint x="588" y="371" as="sourcePoint" />
            <mxPoint x="578" y="455" as="targetPoint" />
          </mxGeometry>
        </mxCell>
        <mxCell id="lrFM34d_Fa-Jtx6sUcbM-16" value="" style="endArrow=none;html=1;rounded=0;entryX=1;entryY=0.5;entryDx=0;entryDy=0;" edge="1" parent="WIyWlLk6GJQsqaUBKTNV-1" target="lrFM34d_Fa-Jtx6sUcbM-9">
          <mxGeometry width="50" height="50" relative="1" as="geometry">
            <mxPoint x="588" y="371" as="sourcePoint" />
            <mxPoint x="596" y="380" as="targetPoint" />
          </mxGeometry>
        </mxCell>
        <mxCell id="lrFM34d_Fa-Jtx6sUcbM-17" value="" style="endArrow=none;html=1;rounded=0;entryX=0.5;entryY=1;entryDx=0;entryDy=0;" edge="1" parent="WIyWlLk6GJQsqaUBKTNV-1" target="lrFM34d_Fa-Jtx6sUcbM-12">
          <mxGeometry width="50" height="50" relative="1" as="geometry">
            <mxPoint x="402" y="531" as="sourcePoint" />
            <mxPoint x="518" y="577" as="targetPoint" />
          </mxGeometry>
        </mxCell>
        <mxCell id="lrFM34d_Fa-Jtx6sUcbM-18" value="" style="endArrow=none;html=1;rounded=0;entryX=0.5;entryY=1;entryDx=0;entryDy=0;" edge="1" parent="WIyWlLk6GJQsqaUBKTNV-1" target="lrFM34d_Fa-Jtx6sUcbM-11">
          <mxGeometry width="50" height="50" relative="1" as="geometry">
            <mxPoint x="588" y="531" as="sourcePoint" />
            <mxPoint x="518" y="577" as="targetPoint" />
          </mxGeometry>
        </mxCell>
        <mxCell id="lrFM34d_Fa-Jtx6sUcbM-19" value="" style="endArrow=none;html=1;rounded=0;" edge="1" parent="WIyWlLk6GJQsqaUBKTNV-1">
          <mxGeometry width="50" height="50" relative="1" as="geometry">
            <mxPoint x="402" y="531" as="sourcePoint" />
            <mxPoint x="588" y="531" as="targetPoint" />
          </mxGeometry>
        </mxCell>
        <mxCell id="lrFM34d_Fa-Jtx6sUcbM-20" value="&lt;font style=&quot;font-size: 21px;&quot;&gt;e^(x*a) &amp;lt; m&lt;/font&gt;" style="rhombus;whiteSpace=wrap;html=1;" vertex="1" parent="WIyWlLk6GJQsqaUBKTNV-1">
          <mxGeometry x="430" y="547" width="138" height="80" as="geometry" />
        </mxCell>
        <mxCell id="lrFM34d_Fa-Jtx6sUcbM-21" value="" style="endArrow=none;html=1;rounded=0;exitX=0.5;exitY=0;exitDx=0;exitDy=0;" edge="1" parent="WIyWlLk6GJQsqaUBKTNV-1" source="lrFM34d_Fa-Jtx6sUcbM-20">
          <mxGeometry width="50" height="50" relative="1" as="geometry">
            <mxPoint x="487" y="613" as="sourcePoint" />
            <mxPoint x="499" y="531" as="targetPoint" />
          </mxGeometry>
        </mxCell>
        <mxCell id="lrFM34d_Fa-Jtx6sUcbM-22" value="m = e^(x*a)" style="rounded=0;whiteSpace=wrap;html=1;fontSize=21;" vertex="1" parent="WIyWlLk6GJQsqaUBKTNV-1">
          <mxGeometry x="525" y="629" width="120" height="60" as="geometry" />
        </mxCell>
        <mxCell id="lrFM34d_Fa-Jtx6sUcbM-23" value="" style="endArrow=none;html=1;rounded=0;exitX=1;exitY=0.5;exitDx=0;exitDy=0;" edge="1" parent="WIyWlLk6GJQsqaUBKTNV-1" source="lrFM34d_Fa-Jtx6sUcbM-20">
          <mxGeometry width="50" height="50" relative="1" as="geometry">
            <mxPoint x="480" y="627" as="sourcePoint" />
            <mxPoint x="584" y="587" as="targetPoint" />
          </mxGeometry>
        </mxCell>
        <mxCell id="lrFM34d_Fa-Jtx6sUcbM-24" value="" style="endArrow=none;html=1;rounded=0;exitX=0.5;exitY=0;exitDx=0;exitDy=0;" edge="1" parent="WIyWlLk6GJQsqaUBKTNV-1" source="lrFM34d_Fa-Jtx6sUcbM-22">
          <mxGeometry width="50" height="50" relative="1" as="geometry">
            <mxPoint x="480" y="627" as="sourcePoint" />
            <mxPoint x="584" y="587" as="targetPoint" />
          </mxGeometry>
        </mxCell>
        <mxCell id="lrFM34d_Fa-Jtx6sUcbM-25" value="" style="endArrow=none;html=1;rounded=0;exitX=0;exitY=0.5;exitDx=0;exitDy=0;" edge="1" parent="WIyWlLk6GJQsqaUBKTNV-1" source="lrFM34d_Fa-Jtx6sUcbM-20">
          <mxGeometry width="50" height="50" relative="1" as="geometry">
            <mxPoint x="533" y="659" as="sourcePoint" />
            <mxPoint x="404" y="587" as="targetPoint" />
          </mxGeometry>
        </mxCell>
        <mxCell id="lrFM34d_Fa-Jtx6sUcbM-26" value="" style="endArrow=none;html=1;rounded=0;" edge="1" parent="WIyWlLk6GJQsqaUBKTNV-1">
          <mxGeometry width="50" height="50" relative="1" as="geometry">
            <mxPoint x="404" y="587" as="sourcePoint" />
            <mxPoint x="404" y="726" as="targetPoint" />
          </mxGeometry>
        </mxCell>
        <mxCell id="lrFM34d_Fa-Jtx6sUcbM-27" value="" style="endArrow=none;html=1;rounded=0;entryX=0.5;entryY=1;entryDx=0;entryDy=0;" edge="1" parent="WIyWlLk6GJQsqaUBKTNV-1" target="lrFM34d_Fa-Jtx6sUcbM-22">
          <mxGeometry width="50" height="50" relative="1" as="geometry">
            <mxPoint x="585" y="726" as="sourcePoint" />
            <mxPoint x="525" y="689" as="targetPoint" />
          </mxGeometry>
        </mxCell>
        <mxCell id="lrFM34d_Fa-Jtx6sUcbM-28" value="" style="endArrow=none;html=1;rounded=0;" edge="1" parent="WIyWlLk6GJQsqaUBKTNV-1">
          <mxGeometry width="50" height="50" relative="1" as="geometry">
            <mxPoint x="404" y="726" as="sourcePoint" />
            <mxPoint x="585" y="726" as="targetPoint" />
          </mxGeometry>
        </mxCell>
        <mxCell id="lrFM34d_Fa-Jtx6sUcbM-29" value="&lt;font style=&quot;font-size: 21px;&quot;&gt;ax + 1 &amp;gt; m&lt;/font&gt;" style="rhombus;whiteSpace=wrap;html=1;" vertex="1" parent="WIyWlLk6GJQsqaUBKTNV-1">
          <mxGeometry x="433" y="738" width="138" height="80" as="geometry" />
        </mxCell>
        <mxCell id="lrFM34d_Fa-Jtx6sUcbM-30" value="m = ax + 1" style="rounded=0;whiteSpace=wrap;html=1;fontSize=21;" vertex="1" parent="WIyWlLk6GJQsqaUBKTNV-1">
          <mxGeometry x="528" y="820" width="120" height="60" as="geometry" />
        </mxCell>
        <mxCell id="lrFM34d_Fa-Jtx6sUcbM-31" value="" style="endArrow=none;html=1;rounded=0;exitX=1;exitY=0.5;exitDx=0;exitDy=0;" edge="1" parent="WIyWlLk6GJQsqaUBKTNV-1" source="lrFM34d_Fa-Jtx6sUcbM-29">
          <mxGeometry width="50" height="50" relative="1" as="geometry">
            <mxPoint x="483" y="818" as="sourcePoint" />
            <mxPoint x="587" y="778" as="targetPoint" />
          </mxGeometry>
        </mxCell>
        <mxCell id="lrFM34d_Fa-Jtx6sUcbM-32" value="" style="endArrow=none;html=1;rounded=0;exitX=0.5;exitY=0;exitDx=0;exitDy=0;" edge="1" parent="WIyWlLk6GJQsqaUBKTNV-1" source="lrFM34d_Fa-Jtx6sUcbM-30">
          <mxGeometry width="50" height="50" relative="1" as="geometry">
            <mxPoint x="483" y="818" as="sourcePoint" />
            <mxPoint x="587" y="778" as="targetPoint" />
          </mxGeometry>
        </mxCell>
        <mxCell id="lrFM34d_Fa-Jtx6sUcbM-33" value="" style="endArrow=none;html=1;rounded=0;exitX=0;exitY=0.5;exitDx=0;exitDy=0;" edge="1" parent="WIyWlLk6GJQsqaUBKTNV-1" source="lrFM34d_Fa-Jtx6sUcbM-29">
          <mxGeometry width="50" height="50" relative="1" as="geometry">
            <mxPoint x="536" y="850" as="sourcePoint" />
            <mxPoint x="407" y="778" as="targetPoint" />
          </mxGeometry>
        </mxCell>
        <mxCell id="lrFM34d_Fa-Jtx6sUcbM-34" value="" style="endArrow=none;html=1;rounded=0;" edge="1" parent="WIyWlLk6GJQsqaUBKTNV-1">
          <mxGeometry width="50" height="50" relative="1" as="geometry">
            <mxPoint x="407" y="778" as="sourcePoint" />
            <mxPoint x="407" y="917" as="targetPoint" />
          </mxGeometry>
        </mxCell>
        <mxCell id="lrFM34d_Fa-Jtx6sUcbM-35" value="" style="endArrow=none;html=1;rounded=0;entryX=0.5;entryY=1;entryDx=0;entryDy=0;" edge="1" parent="WIyWlLk6GJQsqaUBKTNV-1" target="lrFM34d_Fa-Jtx6sUcbM-30">
          <mxGeometry width="50" height="50" relative="1" as="geometry">
            <mxPoint x="588" y="917" as="sourcePoint" />
            <mxPoint x="528" y="880" as="targetPoint" />
          </mxGeometry>
        </mxCell>
        <mxCell id="lrFM34d_Fa-Jtx6sUcbM-36" value="" style="endArrow=none;html=1;rounded=0;" edge="1" parent="WIyWlLk6GJQsqaUBKTNV-1">
          <mxGeometry width="50" height="50" relative="1" as="geometry">
            <mxPoint x="407" y="917" as="sourcePoint" />
            <mxPoint x="588" y="917" as="targetPoint" />
          </mxGeometry>
        </mxCell>
        <mxCell id="lrFM34d_Fa-Jtx6sUcbM-37" value="" style="endArrow=none;html=1;rounded=0;entryX=0.5;entryY=0;entryDx=0;entryDy=0;" edge="1" parent="WIyWlLk6GJQsqaUBKTNV-1" target="lrFM34d_Fa-Jtx6sUcbM-29">
          <mxGeometry width="50" height="50" relative="1" as="geometry">
            <mxPoint x="502" y="726" as="sourcePoint" />
            <mxPoint x="455" y="686" as="targetPoint" />
          </mxGeometry>
        </mxCell>
        <mxCell id="lrFM34d_Fa-Jtx6sUcbM-38" value="Да" style="text;html=1;strokeColor=none;fillColor=none;align=center;verticalAlign=middle;whiteSpace=wrap;rounded=0;fontSize=21;" vertex="1" parent="WIyWlLk6GJQsqaUBKTNV-1">
          <mxGeometry x="553" y="555" width="60" height="30" as="geometry" />
        </mxCell>
        <mxCell id="lrFM34d_Fa-Jtx6sUcbM-39" value="Нет" style="text;html=1;strokeColor=none;fillColor=none;align=center;verticalAlign=middle;whiteSpace=wrap;rounded=0;fontSize=21;" vertex="1" parent="WIyWlLk6GJQsqaUBKTNV-1">
          <mxGeometry x="387" y="557" width="60" height="30" as="geometry" />
        </mxCell>
        <mxCell id="lrFM34d_Fa-Jtx6sUcbM-40" value="Да" style="text;html=1;strokeColor=none;fillColor=none;align=center;verticalAlign=middle;whiteSpace=wrap;rounded=0;fontSize=21;" vertex="1" parent="WIyWlLk6GJQsqaUBKTNV-1">
          <mxGeometry x="553" y="749" width="60" height="30" as="geometry" />
        </mxCell>
        <mxCell id="lrFM34d_Fa-Jtx6sUcbM-41" value="Нет" style="text;html=1;strokeColor=none;fillColor=none;align=center;verticalAlign=middle;whiteSpace=wrap;rounded=0;fontSize=21;" vertex="1" parent="WIyWlLk6GJQsqaUBKTNV-1">
          <mxGeometry x="387" y="752" width="60" height="30" as="geometry" />
        </mxCell>
        <mxCell id="lrFM34d_Fa-Jtx6sUcbM-42" value="" style="endArrow=none;html=1;rounded=0;" edge="1" parent="WIyWlLk6GJQsqaUBKTNV-1" target="lrFM34d_Fa-Jtx6sUcbM-43">
          <mxGeometry width="50" height="50" relative="1" as="geometry">
            <mxPoint x="502" y="917" as="sourcePoint" />
            <mxPoint x="542" y="860" as="targetPoint" />
          </mxGeometry>
        </mxCell>
        <mxCell id="lrFM34d_Fa-Jtx6sUcbM-43" value="func_for_zad3 = m" style="rounded=0;whiteSpace=wrap;html=1;fontSize=21;" vertex="1" parent="WIyWlLk6GJQsqaUBKTNV-1">
          <mxGeometry x="419.5" y="943" width="165" height="60" as="geometry" />
        </mxCell>
        <mxCell id="lrFM34d_Fa-Jtx6sUcbM-44" value="func_for_zad3 =&amp;nbsp;&lt;br style=&quot;font-size: 19px;&quot;&gt;1 + 3 * cos|x+y|" style="rounded=0;whiteSpace=wrap;html=1;fontSize=19;" vertex="1" parent="WIyWlLk6GJQsqaUBKTNV-1">
          <mxGeometry x="256" y="868" width="145" height="60" as="geometry" />
        </mxCell>
        <mxCell id="lrFM34d_Fa-Jtx6sUcbM-45" value="" style="endArrow=none;html=1;rounded=0;entryX=1;entryY=0.5;entryDx=0;entryDy=0;" edge="1" parent="WIyWlLk6GJQsqaUBKTNV-1" target="lrFM34d_Fa-Jtx6sUcbM-6">
          <mxGeometry width="50" height="50" relative="1" as="geometry">
            <mxPoint x="328" y="286" as="sourcePoint" />
            <mxPoint x="343" y="425" as="targetPoint" />
          </mxGeometry>
        </mxCell>
        <mxCell id="lrFM34d_Fa-Jtx6sUcbM-46" value="" style="endArrow=none;html=1;rounded=0;exitX=0.5;exitY=0;exitDx=0;exitDy=0;" edge="1" parent="WIyWlLk6GJQsqaUBKTNV-1" source="lrFM34d_Fa-Jtx6sUcbM-44">
          <mxGeometry width="50" height="50" relative="1" as="geometry">
            <mxPoint x="293" y="475" as="sourcePoint" />
            <mxPoint x="328" y="286" as="targetPoint" />
          </mxGeometry>
        </mxCell>
        <mxCell id="lrFM34d_Fa-Jtx6sUcbM-47" value="" style="endArrow=none;html=1;rounded=0;exitX=0.5;exitY=1;exitDx=0;exitDy=0;" edge="1" parent="WIyWlLk6GJQsqaUBKTNV-1" source="lrFM34d_Fa-Jtx6sUcbM-44">
          <mxGeometry width="50" height="50" relative="1" as="geometry">
            <mxPoint x="314" y="625" as="sourcePoint" />
            <mxPoint x="329" y="1029" as="targetPoint" />
          </mxGeometry>
        </mxCell>
        <mxCell id="lrFM34d_Fa-Jtx6sUcbM-48" value="Нет" style="text;html=1;strokeColor=none;fillColor=none;align=center;verticalAlign=middle;whiteSpace=wrap;rounded=0;fontSize=21;" vertex="1" parent="WIyWlLk6GJQsqaUBKTNV-1">
          <mxGeometry x="298.5" y="256" width="60" height="30" as="geometry" />
        </mxCell>
        <mxCell id="lrFM34d_Fa-Jtx6sUcbM-49" value="&lt;font style=&quot;font-size: 19px;&quot;&gt;m = 0&lt;/font&gt;" style="rounded=0;whiteSpace=wrap;html=1;" vertex="1" parent="WIyWlLk6GJQsqaUBKTNV-1">
          <mxGeometry x="100" y="326" width="120" height="60" as="geometry" />
        </mxCell>
        <mxCell id="lrFM34d_Fa-Jtx6sUcbM-50" value="" style="endArrow=none;html=1;rounded=0;entryX=0;entryY=0.5;entryDx=0;entryDy=0;" edge="1" parent="WIyWlLk6GJQsqaUBKTNV-1" target="lrFM34d_Fa-Jtx6sUcbM-6">
          <mxGeometry width="50" height="50" relative="1" as="geometry">
            <mxPoint x="160" y="286" as="sourcePoint" />
            <mxPoint x="272" y="342" as="targetPoint" />
          </mxGeometry>
        </mxCell>
        <mxCell id="lrFM34d_Fa-Jtx6sUcbM-51" value="" style="endArrow=none;html=1;rounded=0;exitX=0.5;exitY=0;exitDx=0;exitDy=0;" edge="1" parent="WIyWlLk6GJQsqaUBKTNV-1" source="lrFM34d_Fa-Jtx6sUcbM-49">
          <mxGeometry width="50" height="50" relative="1" as="geometry">
            <mxPoint x="182" y="308" as="sourcePoint" />
            <mxPoint x="160" y="286" as="targetPoint" />
          </mxGeometry>
        </mxCell>
        <mxCell id="lrFM34d_Fa-Jtx6sUcbM-52" value="&lt;span style=&quot;font-size: 21px;&quot;&gt;x &amp;gt; y&lt;/span&gt;" style="rhombus;whiteSpace=wrap;html=1;" vertex="1" parent="WIyWlLk6GJQsqaUBKTNV-1">
          <mxGeometry x="91" y="411" width="138" height="80" as="geometry" />
        </mxCell>
        <mxCell id="lrFM34d_Fa-Jtx6sUcbM-53" value="" style="endArrow=none;html=1;rounded=0;entryX=0.5;entryY=1;entryDx=0;entryDy=0;exitX=0.5;exitY=0;exitDx=0;exitDy=0;" edge="1" parent="WIyWlLk6GJQsqaUBKTNV-1" source="lrFM34d_Fa-Jtx6sUcbM-52">
          <mxGeometry width="50" height="50" relative="1" as="geometry">
            <mxPoint x="31" y="512" as="sourcePoint" />
            <mxPoint x="160" y="386" as="targetPoint" />
          </mxGeometry>
        </mxCell>
        <mxCell id="lrFM34d_Fa-Jtx6sUcbM-54" value="&lt;font style=&quot;font-size: 21px;&quot;&gt;m = x&lt;/font&gt;" style="rounded=0;whiteSpace=wrap;html=1;" vertex="1" parent="WIyWlLk6GJQsqaUBKTNV-1">
          <mxGeometry x="193" y="512" width="120" height="60" as="geometry" />
        </mxCell>
        <mxCell id="lrFM34d_Fa-Jtx6sUcbM-55" value="&lt;font style=&quot;font-size: 21px;&quot;&gt;m = y&lt;/font&gt;" style="rounded=0;whiteSpace=wrap;html=1;" vertex="1" parent="WIyWlLk6GJQsqaUBKTNV-1">
          <mxGeometry x="7" y="512" width="120" height="60" as="geometry" />
        </mxCell>
        <mxCell id="lrFM34d_Fa-Jtx6sUcbM-56" value="" style="endArrow=none;html=1;rounded=0;entryX=0;entryY=0.5;entryDx=0;entryDy=0;" edge="1" parent="WIyWlLk6GJQsqaUBKTNV-1" target="lrFM34d_Fa-Jtx6sUcbM-52">
          <mxGeometry width="50" height="50" relative="1" as="geometry">
            <mxPoint x="67" y="451" as="sourcePoint" />
            <mxPoint x="82" y="572" as="targetPoint" />
          </mxGeometry>
        </mxCell>
        <mxCell id="lrFM34d_Fa-Jtx6sUcbM-57" value="" style="endArrow=none;html=1;rounded=0;entryX=0.5;entryY=0;entryDx=0;entryDy=0;" edge="1" parent="WIyWlLk6GJQsqaUBKTNV-1" target="lrFM34d_Fa-Jtx6sUcbM-55">
          <mxGeometry width="50" height="50" relative="1" as="geometry">
            <mxPoint x="67" y="451" as="sourcePoint" />
            <mxPoint x="82" y="572" as="targetPoint" />
          </mxGeometry>
        </mxCell>
        <mxCell id="lrFM34d_Fa-Jtx6sUcbM-58" value="" style="endArrow=none;html=1;rounded=0;entryX=0.5;entryY=0;entryDx=0;entryDy=0;" edge="1" parent="WIyWlLk6GJQsqaUBKTNV-1" target="lrFM34d_Fa-Jtx6sUcbM-54">
          <mxGeometry width="50" height="50" relative="1" as="geometry">
            <mxPoint x="253" y="451" as="sourcePoint" />
            <mxPoint x="243" y="535" as="targetPoint" />
          </mxGeometry>
        </mxCell>
        <mxCell id="lrFM34d_Fa-Jtx6sUcbM-59" value="" style="endArrow=none;html=1;rounded=0;entryX=1;entryY=0.5;entryDx=0;entryDy=0;" edge="1" parent="WIyWlLk6GJQsqaUBKTNV-1" target="lrFM34d_Fa-Jtx6sUcbM-52">
          <mxGeometry width="50" height="50" relative="1" as="geometry">
            <mxPoint x="253" y="451" as="sourcePoint" />
            <mxPoint x="261" y="460" as="targetPoint" />
          </mxGeometry>
        </mxCell>
        <mxCell id="lrFM34d_Fa-Jtx6sUcbM-60" value="" style="endArrow=none;html=1;rounded=0;entryX=0.5;entryY=1;entryDx=0;entryDy=0;" edge="1" parent="WIyWlLk6GJQsqaUBKTNV-1" target="lrFM34d_Fa-Jtx6sUcbM-55">
          <mxGeometry width="50" height="50" relative="1" as="geometry">
            <mxPoint x="67" y="611" as="sourcePoint" />
            <mxPoint x="183" y="657" as="targetPoint" />
          </mxGeometry>
        </mxCell>
        <mxCell id="lrFM34d_Fa-Jtx6sUcbM-61" value="" style="endArrow=none;html=1;rounded=0;entryX=0.5;entryY=1;entryDx=0;entryDy=0;" edge="1" parent="WIyWlLk6GJQsqaUBKTNV-1" target="lrFM34d_Fa-Jtx6sUcbM-54">
          <mxGeometry width="50" height="50" relative="1" as="geometry">
            <mxPoint x="253" y="611" as="sourcePoint" />
            <mxPoint x="183" y="657" as="targetPoint" />
          </mxGeometry>
        </mxCell>
        <mxCell id="lrFM34d_Fa-Jtx6sUcbM-62" value="" style="endArrow=none;html=1;rounded=0;" edge="1" parent="WIyWlLk6GJQsqaUBKTNV-1">
          <mxGeometry width="50" height="50" relative="1" as="geometry">
            <mxPoint x="67" y="611" as="sourcePoint" />
            <mxPoint x="253" y="611" as="targetPoint" />
          </mxGeometry>
        </mxCell>
        <mxCell id="lrFM34d_Fa-Jtx6sUcbM-63" value="" style="endArrow=none;html=1;rounded=0;exitX=0.5;exitY=0;exitDx=0;exitDy=0;" edge="1" parent="WIyWlLk6GJQsqaUBKTNV-1" source="lrFM34d_Fa-Jtx6sUcbM-64">
          <mxGeometry width="50" height="50" relative="1" as="geometry">
            <mxPoint x="164" y="627" as="sourcePoint" />
            <mxPoint x="164" y="611" as="targetPoint" />
          </mxGeometry>
        </mxCell>
        <mxCell id="lrFM34d_Fa-Jtx6sUcbM-64" value="&lt;font style=&quot;font-size: 21px;&quot;&gt;func_for_zad3 =&amp;nbsp;&lt;br&gt;cos(x)^2 + sin(x^2)*m&lt;/font&gt;" style="rounded=0;whiteSpace=wrap;html=1;" vertex="1" parent="WIyWlLk6GJQsqaUBKTNV-1">
          <mxGeometry x="52" y="627" width="226" height="60" as="geometry" />
        </mxCell>
        <mxCell id="lrFM34d_Fa-Jtx6sUcbM-65" value="&lt;font style=&quot;font-size: 21px;&quot;&gt;Конец&lt;/font&gt;" style="rounded=1;whiteSpace=wrap;html=1;fontSize=14;glass=0;strokeWidth=1;shadow=0;" vertex="1" parent="WIyWlLk6GJQsqaUBKTNV-1">
          <mxGeometry x="288" y="1047" width="120" height="40" as="geometry" />
        </mxCell>
        <mxCell id="lrFM34d_Fa-Jtx6sUcbM-67" value="" style="endArrow=none;html=1;rounded=0;entryX=0.5;entryY=1;entryDx=0;entryDy=0;" edge="1" parent="WIyWlLk6GJQsqaUBKTNV-1" target="lrFM34d_Fa-Jtx6sUcbM-43">
          <mxGeometry width="50" height="50" relative="1" as="geometry">
            <mxPoint x="502" y="1030" as="sourcePoint" />
            <mxPoint x="417" y="958" as="targetPoint" />
          </mxGeometry>
        </mxCell>
        <mxCell id="lrFM34d_Fa-Jtx6sUcbM-68" value="" style="endArrow=none;html=1;rounded=0;" edge="1" parent="WIyWlLk6GJQsqaUBKTNV-1">
          <mxGeometry width="50" height="50" relative="1" as="geometry">
            <mxPoint x="166" y="1029" as="sourcePoint" />
            <mxPoint x="502" y="1029" as="targetPoint" />
          </mxGeometry>
        </mxCell>
        <mxCell id="lrFM34d_Fa-Jtx6sUcbM-69" value="" style="endArrow=none;html=1;rounded=0;exitX=0.512;exitY=0.007;exitDx=0;exitDy=0;exitPerimeter=0;" edge="1" parent="WIyWlLk6GJQsqaUBKTNV-1" source="lrFM34d_Fa-Jtx6sUcbM-65">
          <mxGeometry width="50" height="50" relative="1" as="geometry">
            <mxPoint x="331" y="1046" as="sourcePoint" />
            <mxPoint x="349" y="1029" as="targetPoint" />
          </mxGeometry>
        </mxCell>
        <mxCell id="lrFM34d_Fa-Jtx6sUcbM-70" value="" style="endArrow=none;html=1;rounded=0;exitX=0.5;exitY=1;exitDx=0;exitDy=0;" edge="1" parent="WIyWlLk6GJQsqaUBKTNV-1" source="lrFM34d_Fa-Jtx6sUcbM-64">
          <mxGeometry width="50" height="50" relative="1" as="geometry">
            <mxPoint x="182" y="891" as="sourcePoint" />
            <mxPoint x="166" y="1029" as="targetPoint" />
          </mxGeometry>
        </mxCell>
        <mxCell id="lrFM34d_Fa-Jtx6sUcbM-71" value="" style="endArrow=none;html=1;rounded=0;" edge="1" parent="WIyWlLk6GJQsqaUBKTNV-1">
          <mxGeometry width="50" height="50" relative="1" as="geometry">
            <mxPoint x="492" y="29" as="sourcePoint" />
            <mxPoint x="544" y="29" as="targetPoint" />
          </mxGeometry>
        </mxCell>
        <mxCell id="lrFM34d_Fa-Jtx6sUcbM-72" value="" style="endArrow=none;html=1;rounded=0;" edge="1" parent="WIyWlLk6GJQsqaUBKTNV-1">
          <mxGeometry width="50" height="50" relative="1" as="geometry">
            <mxPoint x="492" y="136" as="sourcePoint" />
            <mxPoint x="553" y="136" as="targetPoint" />
          </mxGeometry>
        </mxCell>
      </root>
    </mxGraphModel>
  </diagram>
</mxfile>
